<svg width="14" height="16" viewBox="0 0 14 16" fill="none" xmlns="http://www.w3.org/2000/svg">
<path d="M10.9494 6.20393C10.9494 6.04768 10.8992 5.91933 10.7988 5.81888L10.037 5.06553C9.93101 4.95951 9.80545 4.90649 9.66037 4.90649C9.51528 4.90649 9.38972 4.95951 9.28369 5.06553L5.86851 8.47234L3.97677 6.5806C3.87074 6.47457 3.74519 6.42156 3.6001 6.42156C3.45501 6.42156 3.32945 6.47457 3.22342 6.5806L2.4617 7.33395C2.36126 7.4344 2.31104 7.56274 2.31104 7.71899C2.31104 7.86966 2.36126 7.99522 2.4617 8.09567L5.49184 11.1258C5.59787 11.2318 5.72342 11.2848 5.86851 11.2848C6.01918 11.2848 6.14753 11.2318 6.25356 11.1258L10.7988 6.5806C10.8992 6.48015 10.9494 6.3546 10.9494 6.20393ZM12.1966 4.33311C12.1966 4.33311 12.3403 4.57935 12.6277 5.07181C12.9151 5.56428 13.0588 6.39366 13.0588 7.55995C13.0588 8.72625 12.7714 9.80186 12.1966 10.7868C11.6219 11.7717 10.842 12.5516 9.85707 13.1264C8.87214 13.7011 7.79653 13.9885 6.63023 13.9885C5.46394 13.9885 4.38832 13.7011 3.40339 13.1264C2.41846 12.5516 1.6386 11.7717 1.06383 10.7868C0.489049 9.80186 0.20166 8.72625 0.20166 7.55995C0.20166 6.39366 0.489049 5.31805 1.06383 4.33311C1.6386 3.34818 2.41846 2.56833 3.40339 1.99355C4.38832 1.41877 5.46394 1.13138 6.63023 1.13138C7.79653 1.13138 8.87214 1.41877 9.85707 1.99355C10.842 2.56833 11.6219 3.34818 12.1966 4.33311Z" fill="#00A91E"/>
</svg>
